<svg xmlns="http://www.w3.org/2000/svg" width="800" height="800" viewBox="0 0 12 12" class="inst-svg"><path d="M6 3.18367C5.44298 3.18367 4.89848 3.34885 4.43533 3.65831C3.97219 3.96777 3.61121 4.40762 3.39805 4.92224C3.18489 5.43685 3.12912 6.00312 3.23779 6.54944C3.34646 7.09575 3.61469 7.59757 4.00856 7.99144C4.40243 8.38531 4.90425 8.65354 5.45056 8.76221C5.99688 8.87088 6.56315 8.81511 7.07776 8.60195C7.59238 8.38879 8.03223 8.02781 8.34169 7.56467C8.65115 7.10152 8.81633 6.55702 8.81633 6C8.81633 5.25306 8.51961 4.53672 7.99144 4.00856C7.46328 3.48039 6.74694 3.18367 6 3.18367ZM6 8.08163C5.58829 8.08163 5.18583 7.95955 4.84351 7.73081C4.50118 7.50208 4.23438 7.17697 4.07682 6.79661C3.91927 6.41624 3.87804 5.99769 3.95837 5.59389C4.03869 5.1901 4.23694 4.81918 4.52806 4.52806C4.81918 4.23694 5.1901 4.03869 5.59389 3.95837C5.99769 3.87804 6.41624 3.91927 6.79661 4.07682C7.17697 4.23438 7.50208 4.50118 7.73081 4.84351C7.95955 5.18583 8.08163 5.58829 8.08163 6C8.08002 6.55159 7.86018 7.08012 7.47015 7.47015C7.08012 7.86018 6.55159 8.08002 6 8.08163ZM8.69388 0H3.30612C2.42928 0 1.58836 0.348323 0.968341 0.968341C0.348323 1.58836 0 2.42928 0 3.30612V8.69388C0 9.57072 0.348323 10.4116 0.968341 11.0317C1.58836 11.6517 2.42928 12 3.30612 12H8.69388C9.57072 12 10.4116 11.6517 11.0317 11.0317C11.6517 10.4116 12 9.57072 12 8.69388V3.30612C12 2.42928 11.6517 1.58836 11.0317 0.968341C10.4116 0.348323 9.57072 0 8.69388 0ZM11.2653 8.69388C11.2653 9.37586 10.9944 10.0299 10.5122 10.5122C10.0299 10.9944 9.37586 11.2653 8.69388 11.2653H3.30612C2.62414 11.2653 1.97008 10.9944 1.48785 10.5122C1.00561 10.0299 0.734694 9.37586 0.734694 8.69388V3.30612C0.734694 2.62414 1.00561 1.97008 1.48785 1.48785C1.97008 1.00561 2.62414 0.734694 3.30612 0.734694H8.69388C9.37586 0.734694 10.0299 1.00561 10.5122 1.48785C10.9944 1.97008 11.2653 2.62414 11.2653 3.30612V8.69388ZM9.79592 2.81633C9.79592 2.93742 9.76001 3.05579 9.69274 3.15647C9.62546 3.25715 9.52984 3.33563 9.41797 3.38197C9.3061 3.42831 9.18299 3.44043 9.06423 3.41681C8.94547 3.39318 8.83637 3.33487 8.75075 3.24925C8.66513 3.16362 8.60682 3.05453 8.58319 2.93577C8.55957 2.81701 8.57169 2.6939 8.61803 2.58203C8.66437 2.47016 8.74284 2.37454 8.84353 2.30726C8.94421 2.23999 9.06258 2.20408 9.18367 2.20408C9.34605 2.20408 9.50178 2.26859 9.6166 2.3834C9.73141 2.49822 9.79592 2.65395 9.79592 2.81633Z"></path></svg>