<svg xmlns="http://www.w3.org/2000/svg" width="800" height="800" viewBox="0 0 17 11"><path d="M15.9712 11H14.1915C13.5596 11 13.2341 10.6169 12.6956 9.98193C12.4783 9.72704 12.2123 9.41297 11.8577 9.03745C11.1473 8.31297 10.618 7.92759 10.3328 7.92759C10.2917 7.92759 10.2627 7.9291 10.2429 7.93062C10.209 8.09221 10.2125 8.536 10.2174 9.04124C10.2196 9.28324 10.2217 9.56317 10.2217 9.88786C10.2217 10.8103 9.57138 11 8.59556 11C6.50169 11 4.36465 9.65041 2.87792 7.38972C0.725319 4.19517 0 1.60524 0 0.914896C0 0.333793 0.350984 0.000758566 0.96379 0.000758566H2.74418C3.4879 0.000758566 3.72071 0.508276 3.88063 0.983172C4.75102 3.67552 6.02829 5.51972 6.44933 5.74959C6.45782 5.6889 6.4656 5.58952 6.4656 5.42945V2.65138C6.43234 2.00428 6.22996 1.73876 6.05164 1.50359C5.91436 1.32379 5.75939 1.12048 5.75939 0.811724C5.75939 0.421035 6.06862 0 6.56679 0H9.36475C9.75537 0 10.2203 0.186621 10.2203 1.07345V4.80814C10.2203 4.86959 10.2259 4.9151 10.2337 4.94772C10.3236 4.90448 10.4637 4.78538 10.7333 4.50014C11.9462 3.06407 12.8335 0.791241 12.842 0.768483C13.0423 0.264759 13.4223 0 13.9431 0H15.7228C16.0901 0 16.3561 0.115311 16.5132 0.342138C16.6172 0.491586 16.717 0.758621 16.5995 1.18193C16.5988 1.18421 16.5981 1.18648 16.5974 1.18952C16.3455 2.29862 14.5269 5.09566 14.1582 5.61455L14.1596 5.61531C14.1278 5.66917 14.0443 5.81179 14.0436 5.84972C14.0436 5.84972 14.0478 5.89524 14.1384 6.01814C14.1398 6.02041 14.142 6.02345 14.1441 6.02572C14.1823 6.07503 14.292 6.19186 14.4441 6.35648C16.1778 8.22497 17.2661 9.64055 16.9435 10.472C16.8486 10.7132 16.6045 11 15.9712 11ZM10.3335 7.16897C10.6894 7.16897 11.2067 7.32676 12.3517 8.49276C12.7217 8.88497 12.9963 9.20814 13.2199 9.47138C13.7379 10.0813 13.8858 10.2414 14.1929 10.2414H15.9726C16.1898 10.2414 16.2776 10.1951 16.291 10.1784C16.3413 10.0586 16.3257 9.46076 13.9424 6.89131C13.7563 6.69028 13.6268 6.54538 13.5815 6.48621C13.1874 5.94835 13.3388 5.59103 13.5603 5.21248C13.5773 5.18214 13.5992 5.15559 13.6233 5.13207C13.9042 4.708 15.7306 1.89579 15.9139 0.993035C15.9174 0.975586 15.9223 0.958138 15.928 0.941448C15.9528 0.843586 15.945 0.798827 15.9436 0.790483C15.9372 0.790483 15.8799 0.758621 15.7228 0.758621H13.9431C13.6707 0.758621 13.5674 0.88 13.4945 1.06207C13.4577 1.1569 12.5512 3.47676 11.2435 5.02434C10.7807 5.51593 10.5182 5.72834 10.1502 5.72834C9.8332 5.72834 9.51265 5.412 9.51265 4.80814V1.07345C9.51265 0.836 9.47444 0.776069 9.47161 0.772276C9.47019 0.772276 9.44189 0.758621 9.36475 0.758621H6.56608C6.48895 0.758621 6.46772 0.801862 6.46631 0.813241C6.46631 0.849655 6.5307 0.934621 6.59934 1.02414C6.8088 1.29952 7.12582 1.716 7.17323 2.63014L7.17394 5.42869C7.17394 5.786 7.17394 6.52869 6.49108 6.52869C5.48341 6.52869 3.91318 3.39938 3.21334 1.23655C3.05979 0.781379 2.97841 0.759379 2.74418 0.759379H0.96379C0.707628 0.759379 0.707628 0.801862 0.707628 0.914896C0.707628 1.2191 1.21429 3.62545 3.45393 6.94897C4.81046 9.01241 6.73238 10.2414 8.59627 10.2414C9.51477 10.2414 9.51477 10.0934 9.51477 9.88786C9.51477 9.56621 9.51265 9.28779 9.51053 9.04807C9.50133 8.01938 9.49779 7.634 9.73767 7.37455C9.90538 7.194 10.1233 7.16897 10.3335 7.16897Z"></path></svg>