<svg xmlns="http://www.w3.org/2000/svg" width="800" height="800" viewBox="0 0 14 14" fill="none"> <path d="M7 0C3.13768 0 0 3.13768 0 7C0 8.24146 0.34047 9.40005 0.908288 10.4114L0.0112942 13.6136C-0.00303615 13.6649 -0.00368365 13.719 0.00941625 13.7705C0.0225161 13.8221 0.0489058 13.8693 0.0859538 13.9075C0.123002 13.9457 0.169414 13.9735 0.220563 13.9882C0.271711 14.0029 0.325809 14.0039 0.377463 13.9911L3.71637 13.1636C4.6975 13.6874 5.81079 14 7 14C10.8623 14 14 10.8623 14 7C14 3.13768 10.8623 0 7 0ZM7 0.608696C10.5333 0.608696 13.3913 3.46666 13.3913 7C13.3913 10.5333 10.5333 13.3913 7 13.3913C5.86722 13.3913 4.8063 13.096 3.884 12.5799C3.81655 12.5422 3.73728 12.5316 3.66228 12.5502L0.738281 13.2748L1.52233 10.4774C1.53355 10.4379 1.53665 10.3965 1.53144 10.3557C1.52623 10.315 1.51282 10.2757 1.49202 10.2402C0.931513 9.28979 0.608696 8.18395 0.608696 7C0.608696 3.46666 3.46666 0.608696 7 0.608696ZM4.45644 3.34783C4.26134 3.34783 3.98271 3.42041 3.75382 3.66703C3.61634 3.81517 3.04348 4.37333 3.04348 5.35462C3.04348 6.37769 3.75303 7.26048 3.83882 7.3739H3.83942V7.37449C3.83128 7.3638 3.94831 7.53328 4.10453 7.7365C4.26076 7.93972 4.47921 8.20663 4.75365 8.49558C5.30253 9.07349 6.07426 9.74139 7.0321 10.1499C7.4732 10.3377 7.82118 10.4511 8.08483 10.5339C8.57343 10.6873 9.01846 10.664 9.35275 10.6147C9.60297 10.5779 9.87818 10.4577 10.1505 10.2854C10.4228 10.1131 10.6896 9.89883 10.8073 9.57328C10.8916 9.3399 10.9345 9.12423 10.95 8.94676C10.9577 8.85802 10.9587 8.7797 10.953 8.7072C10.9472 8.6347 10.9534 8.57916 10.8858 8.46824C10.7441 8.23559 10.5836 8.22952 10.4162 8.14665C10.3232 8.10061 10.0583 7.97127 9.79263 7.84468C9.52727 7.71824 9.2975 7.60625 9.15599 7.55579C9.06659 7.52363 8.95743 7.47732 8.79993 7.49516C8.64243 7.51299 8.48688 7.62663 8.39631 7.76087C8.31047 7.88811 7.9649 8.29602 7.85954 8.41593C7.85814 8.41508 7.86729 8.41929 7.82566 8.39869C7.69536 8.3342 7.536 8.27937 7.30019 8.15498C7.06437 8.03058 6.76938 7.84689 6.44659 7.56233V7.56174C5.96614 7.13877 5.6296 6.60773 5.52344 6.42935C5.53059 6.42084 5.52259 6.43114 5.5377 6.41627L5.5383 6.41568C5.6468 6.3088 5.74296 6.18116 5.82422 6.08755C5.93943 5.95483 5.99027 5.83783 6.04535 5.72852C6.15512 5.51066 6.094 5.27092 6.03049 5.14479V5.14419C6.03487 5.15292 5.99613 5.06744 5.9544 4.96883C5.91255 4.86995 5.8592 4.74175 5.80222 4.60504C5.68827 4.33163 5.56105 4.02497 5.48539 3.84536V3.84477C5.39627 3.63321 5.27569 3.4808 5.11804 3.40727C4.96039 3.33374 4.82111 3.35464 4.81547 3.35436H4.81488C4.70238 3.34917 4.57892 3.34783 4.45644 3.34783ZM4.45644 3.95652C4.57377 3.95652 4.68946 3.95795 4.78634 3.96247C4.88602 3.96743 4.87982 3.96784 4.86065 3.9589C4.84117 3.94982 4.8676 3.94687 4.92425 4.08135C4.99833 4.25722 5.12618 4.56499 5.24049 4.83925C5.29764 4.97638 5.35113 5.10507 5.39385 5.20601C5.43657 5.30695 5.45972 5.36331 5.48658 5.41703V5.41763L5.48718 5.41822C5.51352 5.47019 5.51119 5.43692 5.50204 5.45508C5.43781 5.58255 5.4291 5.61385 5.36413 5.68869C5.26521 5.80265 5.16431 5.92973 5.1109 5.98234C5.06418 6.02824 4.97987 6.09975 4.92722 6.23972C4.8745 6.37991 4.89911 6.57226 4.9837 6.71586C5.09631 6.90705 5.46743 7.51109 6.04416 8.01885C6.40736 8.33903 6.74574 8.55094 7.01605 8.69353C7.28636 8.83612 7.50653 8.9194 7.55579 8.94378C7.67278 9.00168 7.80063 9.04664 7.9493 9.02879C8.09797 9.01094 8.22615 8.92073 8.30774 8.82846L8.30834 8.82787C8.41693 8.70476 8.73961 8.33631 8.89445 8.1092C8.90101 8.11152 8.89886 8.10972 8.95032 8.12823V8.12882H8.95092C8.97441 8.13719 9.2687 8.26891 9.53108 8.39394C9.79346 8.51897 10.0598 8.64892 10.1463 8.69175C10.2712 8.75355 10.3302 8.79379 10.3454 8.79399C10.3465 8.82077 10.3475 8.84978 10.3437 8.89385C10.333 9.01609 10.3003 9.18529 10.2349 9.36642C10.2028 9.4551 10.0359 9.63798 9.82532 9.77123C9.61477 9.90448 9.35849 9.99859 9.26359 10.0126C8.97823 10.0546 8.63942 10.07 8.26732 9.95312C8.00932 9.87214 7.68761 9.76731 7.27106 9.58993C6.42625 9.22964 5.70822 8.61655 5.19531 8.07651C4.93886 7.80649 4.73339 7.55514 4.58721 7.36498C4.44131 7.17518 4.3776 7.07641 4.32447 7.00654L4.32388 7.00594C4.22958 6.88124 3.65217 6.07808 3.65217 5.35462C3.65217 4.58895 4.0078 4.2887 4.20024 4.08135C4.30126 3.9725 4.41171 3.95652 4.45644 3.95652Z" fill="#22282b"/> </svg>