<svg xmlns="http://www.w3.org/2000/svg" width="800" height="800" viewBox="0 0 13 13"><path d="M2.8169 1.7711e-05C1.26638 1.7711e-05 0 1.2664 0 2.81692C0 8.32919 4.39955 12.8002 9.87128 12.9689L9.87696 13H10.1831C11.7336 13 13 11.7336 13 10.1831C13 10.0236 12.9862 9.86668 12.9605 9.71483C12.9559 9.68605 12.9509 9.658 12.945 9.63019C12.8804 9.30482 12.6494 9.03715 12.3384 8.92494H12.3369C11.6692 8.68543 10.0026 8.08828 9.32671 7.84586C9.00087 7.72894 8.6322 7.85275 8.44228 8.14208L7.66219 9.32696C5.86359 8.61955 4.38714 7.19829 3.67307 5.40687C3.66449 5.38522 3.66968 5.3735 3.68298 5.36455V5.3631L4.87078 4.55484C5.15309 4.36224 5.27124 3.99916 5.15708 3.67886H5.15563L4.07667 0.664398C3.96447 0.352709 3.6963 0.119578 3.36851 0.0550113V0.0535604H3.36706C3.34107 0.0484824 3.31217 0.0443714 3.2811 0.0395354C3.12972 0.0135405 2.97424 0 2.81694 0L2.8169 1.7711e-05ZM2.8169 0.722194C2.9366 0.722194 3.05339 0.732593 3.1639 0.751817H3.16947C3.18748 0.754597 3.20719 0.75895 3.22871 0.763061C3.30609 0.778295 3.36909 0.831858 3.39653 0.908391L4.47707 3.9214H4.47562C4.48106 3.93664 4.4772 3.94933 4.46438 3.95804L3.27817 4.76641C2.98291 4.96615 2.87217 5.34955 3.00177 5.6748C3.80956 7.70146 5.47287 9.31045 7.51987 10.0716L7.52132 10.073C7.76543 10.1624 8.03906 10.0696 8.18001 9.85441L9.04606 8.53832C9.05561 8.52381 9.06637 8.5197 9.08269 8.52563C9.75894 8.76817 11.4255 9.36533 12.0929 9.60472C12.1688 9.63216 12.2216 9.69443 12.2368 9.7712L12.2382 9.77398V9.77677C12.2421 9.79442 12.2454 9.81243 12.2482 9.83033V9.83311L12.2496 9.83589C12.2682 9.9464 12.2778 10.0631 12.2778 10.183C12.2778 11.3428 11.3428 12.2777 10.1831 12.2777C4.9543 12.2777 0.722206 8.04565 0.722206 2.81689C0.722206 1.65714 1.65718 0.72217 2.81693 0.72217L2.8169 0.722194Z"></path></svg>